<?xml version="1.0" encoding="utf-8"?>
<!-- Generator: Adobe Illustrator 23.0.2, SVG Export Plug-In . SVG Version: 6.00 Build 0)  -->
<svg version="1.1" id="Layer_1" xmlns="http://www.w3.org/2000/svg" xmlns:xlink="http://www.w3.org/1999/xlink" x="0px" y="0px"
	 viewBox="0 0 317.2 101.9" style="enable-background:new 0 0 317.2 101.9;" xml:space="preserve">
<style type="text/css">
	.st0{fill:#2C3C48;}
	.st1{fill:#FFCD1C;}
	.st2{fill:#F4B700;}
</style>
<path class="st0" d="M122.3,36.2v34.3c0,2.2,1.6,2.9,4.4,3.6v2.9h-17.5V74c2.8-0.7,4.4-1.4,4.4-3.6V55H91.3v15.4
	c0,2.2,1.6,2.9,4.4,3.6v2.9H78.2V74c2.8-0.7,4.4-1.4,4.4-3.6V36.2c0-2.3-1.6-2.9-4.4-3.6v-3.1h17.5v3.1c-2.8,0.7-4.4,1.3-4.4,3.6
	v14.6h22.4V36.2c0-2.3-1.6-2.9-4.4-3.6v-3.1h17.5v3.1C123.9,33.3,122.3,33.9,122.3,36.2"/>
<path class="st0" d="M166.1,55.1c0-14-6.9-22.6-14-22.6c-8.4,0-14.1,4-14.1,18c0,13.7,7.2,22.7,14.3,22.7
	C160,73.2,166.1,70.1,166.1,55.1 M152.1,78.1c-13.3,0-23.5-10.2-23.5-25.3c0-14.4,10.2-24.5,23.5-24.5c13.1,0,23.4,10.4,23.4,24.5
	C175.5,67.2,165.2,78.1,152.1,78.1"/>
<path class="st0" d="M212.9,53.2c0-12.6-5.5-19.8-16.4-19.8h-5.7v36.1c0,1.8,0.6,2.7,2.4,2.9l4.1,0.2
	C208.4,73.3,212.9,65.9,212.9,53.2 M222.2,53.2c0,19.9-14.6,24.3-27.1,23.6c-7.9-0.5-12.2-0.5-17.7,0.2v-3.6c3.5-0.8,5-1.9,5-3.7
	V36.3c0-1.8-1.6-2.9-5-3.6v-3.2h17.3C211.6,29.5,222.2,35.8,222.2,53.2"/>
<path class="st0" d="M263,42.3c-2.7-6.6-8.8-9.8-14.8-9.8c-7.4,0-12.8,5.5-12.8,18.6c0,14.3,5.7,22.1,13.6,22.1
	c6,0,11.8-3.1,11.8-6.2v-6.3c0-1.5-0.9-2.4-2.4-2.4h-3.4v-3.8l18.5-0.1v3.9H271c-1.5,0-2.4,0.9-2.4,2.4v15.9c0,1-2.5,1.3-2.7,0.4
	l-1.8-6c-3.7,3.5-8.2,6.7-15,6.7c-13,0-23-9.8-23-25.2c0-14.1,9.7-24.2,22.2-24.2c6.6,0,11.4,2.7,14,6.9c1.5,0,2-2.7,2.2-6.2h3.7
	l1.1,15.3l-4.7,1.5C264.1,45,263.7,43.9,263,42.3"/>
<path class="st0" d="M312.7,75.2c-0.3,1.1-1.3,1.8-2.3,1.8h-35.5v-3.2c2.9-0.6,4.4-1.3,4.4-3.5v-34c0-2.3-1.5-2.9-4.4-3.6v-3.1h34.7
	c1,0,1.3,0.2,1.3,1.4v8.2h-3.2l-1.1-2.5c-1-2.1-2.8-2.7-6.1-2.7H288v16.9h13c2.5,0,2.9-1.3,3.9-3.7h1.9v11.7h-1.9
	c-1-2.4-1.4-3.8-3.9-3.8h-13v17.9l16.3-0.2c3.1,0,3.7-0.7,5.1-2.4l2-2.5h3.8C313.9,70.1,313.3,72.7,312.7,75.2"/>
<path class="st1" d="M64.7,21.9c-0.1-0.7-0.5-1.2-1.1-1.5c-6.4-3-27.5-3.7-29.8-3.8c-0.1,0-0.1,0-0.1,0l0,0V26h0.1
	c2,0,3.6,1.6,3.6,3.6s-1.6,3.6-3.6,3.6h-0.1v7.4h0.1c2,0,3.6,1.6,3.6,3.6s-1.6,3.6-3.6,3.6h-0.1v7.8c2,0,3.6,1.6,3.6,3.6
	s-1.6,3.6-3.6,3.6V70h0.1c2,0,3.6,1.6,3.6,3.6s-1.6,3.6-3.6,3.6h-0.1v12.6h0.1c0.3,0,0.6-0.1,0.8-0.1c8.7-3.9,15.7-9.8,20.8-17.8
	c4-6.3,6.9-13.9,8.6-22.5C66.5,34.8,64.8,22.5,64.7,21.9 M44.4,63.5c-2,0-3.6-1.6-3.6-3.6s1.6-3.6,3.6-3.6s3.6,1.6,3.6,3.6
	S46.4,63.5,44.4,63.5 M40.6,44.9c0-2,1.6-3.6,3.6-3.6s3.6,1.6,3.6,3.6s-1.6,3.6-3.6,3.6S40.6,46.9,40.6,44.9 M44.4,33.9
	c-2,0-3.6-1.6-3.6-3.6s1.6-3.6,3.6-3.6s3.6,1.6,3.6,3.6S46.4,33.9,44.4,33.9 M54.2,49.9c-2,0-3.6-1.6-3.6-3.6s1.6-3.6,3.6-3.6
	c2,0,3.6,1.6,3.6,3.6S56.2,49.9,54.2,49.9 M55.7,35.3c-2,0-3.6-1.6-3.6-3.6s1.6-3.6,3.6-3.6c2,0,3.6,1.6,3.6,3.6
	S57.7,35.3,55.7,35.3"/>
<path class="st2" d="M30.1,73.6c0-2,1.5-3.5,3.5-3.6v-7.2c-2,0-3.6-1.6-3.6-3.6s1.6-3.6,3.6-3.6v-7.8c-1.9-0.1-3.5-1.6-3.5-3.6
	s1.5-3.5,3.5-3.6v-7.4c-1.9-0.1-3.5-1.6-3.5-3.6s1.5-3.5,3.5-3.6v-9.4c-2.5,0.1-23.5,0.8-29.8,3.9c-0.6,0.2-1,0.8-1.1,1.5
	c-0.1,0.5-1.9,12.9,0.9,27.4c1.6,8.6,4.5,16.2,8.6,22.5c5.1,8,12.1,14,20.8,17.8c0.2,0.1,0.5,0.1,0.7,0.1V77.2
	C31.6,77.1,30.1,75.6,30.1,73.6 M8.1,31.7c0-2,1.6-3.6,3.6-3.6s3.6,1.6,3.6,3.6s-1.6,3.6-3.6,3.6S8.1,33.7,8.1,31.7 M13.1,49.9
	c-2,0-3.6-1.6-3.6-3.6s1.6-3.6,3.6-3.6s3.6,1.6,3.6,3.6S15.1,49.9,13.1,49.9 M22.9,26.8c2,0,3.6,1.6,3.6,3.6s-1.6,3.6-3.6,3.6
	s-3.6-1.6-3.6-3.6S20.9,26.8,22.9,26.8 M22.9,63.5c-2,0-3.6-1.6-3.6-3.6s1.6-3.6,3.6-3.6s3.6,1.6,3.6,3.6S24.9,63.5,22.9,63.5
	 M23.1,48.5c-2,0-3.6-1.6-3.6-3.6s1.6-3.6,3.6-3.6s3.6,1.6,3.6,3.6S25.1,48.5,23.1,48.5"/>
</svg>
